{"title":"Robocop (2014) BRrip 720p x264 Dual Audio [Eng DD 5.1-Hindi DD 5","uid":10282760,"size":1177504971,"categoryP":"video","categoryS":"hd___movies","magnet":"?xt=urn:btih:eac90521c5965f58eec3525353efb037e5498859&amp;dn=Robocop+%282014%29+BRrip+720p+x264+Dual+Audio+%5BEng+DD+5.1-Hindi+DD+5&amp;tr=udp%3A%2F%2Ftracker.openbittorrent.com%3A80&amp;tr=udp%3A%2F%2Fopen.demonii.com%3A1337&amp;tr=udp%3A%2F%2Ftracker.coppersurfer.tk%3A6969&amp;tr=udp%3A%2F%2Fexodus.desync.com%3A6969","seeders":1,"leechers":0,"uploader":"Xdesiars","files":4,"time":1401729174,"description":"Format                                   : Matroska\nFormat version                           : Version 2\nFile size                                : 1.09 GiB\nDuration                                 : 1h 57mn\nOverall bit rate                         : 1 324 Kbps\nMovie name                               : Robocop (2014) by XdesiArsenal \nEncoded date                             : UTC 2014-05-30 14:25:31\nWriting application                      : mkvmerge v5.0.1 ('Es ist Sommer') built on Nov 23 2011 20:48:57\nWriting library                          : libebml v1.2.2 + libmatroska v1.3.0\n\nVideo\nID                                       : 1\nFormat                                   : AVC\nFormat/Info                              : Advanced Video Codec\nFormat profile                           : &lt;a class=&quot;__cf_email__&quot; href=&quot;/cdn-cgi/l/email-protection&quot; data-cfemail=&quot;6b23020c032b2758455a&quot;&gt;[email&amp;#160;protected]&lt;/a&gt;&lt;script cf-hash='f9e31' type=&quot;text/javascript&quot;&gt;\n/* &lt;![CDATA[ */!function(){try{var t=&quot;currentScript&quot;in document?document.currentScript:function(){for(var t=document.getElementsByTagName(&quot;script&quot;),e=t.length;e--;)if(t[e].getAttribute(&quot;cf-hash&quot;))return t[e]}();if(t&amp;&amp;t.previousSibling){var e,r,n,i,c=t.previousSibling,a=c.getAttribute(&quot;data-cfemail&quot;);if(a){for(e=&quot;&quot;,r=parseInt(a.substr(0,2),16),n=2;a.length-n;n+=2)i=parseInt(a.substr(n,2),16)^r,e+=String.fromCharCode(i);e=document.createTextNode(e),c.parentNode.replaceChild(e,c)}}}catch(u){}}();/* ]]&gt; */&lt;/script&gt;\nFormat settings, CABAC                   : Yes\nFormat settings, ReFrames                : 4 frames\nMuxing mode                              : Header stripping\nCodec ID                                 : V_MPEG4/ISO/AVC\nDuration                                 : 1h 57mn\nBit rate                                 : 1 068 Kbps\nWidth                                    : 1 280 pixels\nHeight                                   : 528 pixels\nDisplay aspect ratio                     : 2.40:1\nFrame rate mode                          : Constant\nFrame rate                               : 23.976 fps\nColor space                              : YUV\nChroma subsampling                       : 4:2:0\nBit depth                                : 8 bits\nScan type                                : Progressive\nBits/(Pixel*Frame)                       : 0.066\nStream size                              : 876 MiB (79%)\nTitle                                    : Robocop (2014) by XdesiArsenal\nWriting library                          : x264 core 133 r2334 a3ac64b\nDefault                                  : Yes\nForced                                   : No\n\nAudio #1\nID                                       : 2\nFormat                                   : AC-3\nFormat/Info                              : Audio Coding 3\nMode extension                           : CM (complete main)\nFormat settings, Endianness              : Big\nMuxing mode                              : Header stripping\nCodec ID                                 : A_AC3\nDuration                                 : 1h 57mn\nBit rate mode                            : Constant\nBit rate                                 : 128 Kbps\nChannel(s)                               : 6 channels\nChannel positions                        : Front: L C R, Side: L R, LFE\nSampling rate                            : 48.0 KHz\nBit depth                                : 16 bits\nCompression mode                         : Lossy\nStream size                              : 108 MiB (10%)\nTitle                                    : XdesiArsenal\nLanguage                                 : Hindi\nDefault                                  : Yes\nForced                                   : No\n\nAudio #2\nID                                       : 3\nFormat                                   : AC-3\nFormat/Info                              : Audio Coding 3\nMode extension                           : CM (complete main)\nFormat settings, Endianness              : Big\nMuxing mode                              : Header stripping\nCodec ID                                 : A_AC3\nDuration                                 : 1h 57mn\nBit rate mode                            : Constant\nBit rate                                 : 128 Kbps\nChannel(s)                               : 6 channels\nChannel positions                        : Front: L C R, Side: L R, LFE\nSampling rate                            : 48.0 KHz\nBit depth                                : 16 bits\nCompression mode                         : Lossy\nStream size                              : 108 MiB (10%)\nTitle                                    : XdesiArsenal\nLanguage                                 : English\nDefault                                  : No\nForced                                   : No\n\nMenu\n00:00:00.000                             : en:00:00:00.000\n00:04:33.899                             : en:00:04:33.899\n00:08:51.740                             : en:00:08:51.740\n00:14:33.915                             : en:00:14:33.915\n00:17:01.604                             : en:00:17:01.604\n00:19:27.041                             : en:00:19:27.041\n00:21:52.937                             : en:00:21:52.937\n00:26:13.572                             : en:00:26:13.572\n00:30:47.971                             : en:00:30:47.971\n00:32:48.675                             : en:00:32:48.675\n00:36:12.379                             : en:00:36:12.379\n00:39:06.970                             : en:00:39:06.970\n00:43:03.498                             : en:00:43:03.498\n00:45:40.655                             : en:00:45:40.655\n00:52:10.377                             : en:00:52:10.377\n00:57:21.188                             : en:00:57:21.188\n01:01:23.889                             : en:01:01:23.889\n01:02:59.901                             : en:01:02:59.901\n01:06:05.920                             : en:01:06:05.920\n01:10:30.476                             : en:01:10:30.476\n01:13:26.527                             : en:01:13:26.527\n01:18:24.867                             : en:01:18:24.867\n01:21:56.203                             : en:01:21:56.203\n01:26:04.993                             : en:01:26:04.993\n01:28:06.907                             : en:01:28:06.907\n01:32:02.976                             : en:01:32:02.976\n01:35:52.956                             : en:01:35:52.956\n01:38:30.655                             : en:01:38:30.655\n01:41:30.751                             : en:01:41:30.751\n01:43:44.635                             : en:01:43:44.635\n01:46:41.562                             : en:01:46:41.562\n01:50:12.689                             : en:01:50:12.689\n","torrent":{"xt":"urn:btih:eac90521c5965f58eec3525353efb037e5498859","amp;dn":"Robocop+%282014%29+BRrip+720p+x264+Dual+Audio+%5BEng+DD+5.1-Hindi+DD+5","amp;tr":["udp%3A%2F%2Ftracker.openbittorrent.com%3A80","udp%3A%2F%2Fopen.demonii.com%3A1337","udp%3A%2F%2Ftracker.coppersurfer.tk%3A6969","udp%3A%2F%2Fexodus.desync.com%3A6969"],"infoHash":"eac90521c5965f58eec3525353efb037e5498859","infoHashBuffer":{"type":"Buffer","data":[234,201,5,33,197,150,95,88,238,195,82,83,83,239,176,55,229,73,136,89]},"announce":[],"urlList":[]}}